<svg version="1.1" id="Layer_1" xmlns="http://www.w3.org/2000/svg" xmlns:xlink="http://www.w3.org/1999/xlink" x="0px" y="0px"
	 width="100%" viewBox="0 0 254 294" enable-background="new 0 0 254 294" xml:space="preserve">
<path fill="#6B37C7" opacity="1.000000" stroke="none" 
	d="
M164.000000,295.000000 
	C109.333336,295.000000 55.166668,295.000000 1.000000,295.000000 
	C1.000000,197.000000 1.000000,99.000000 1.000000,1.000000 
	C85.666664,1.000000 170.333328,1.000000 255.000000,1.000000 
	C255.000000,99.000000 255.000000,197.000000 255.000000,295.000000 
	C224.833328,295.000000 194.666672,295.000000 164.000000,295.000000 
M174.897583,239.447433 
	C188.814484,232.428665 198.833054,221.652237 205.410965,207.618149 
	C210.683624,196.368851 212.181549,184.333313 212.210068,172.099594 
	C212.297867,134.440826 212.272034,96.781693 212.207260,59.122849 
	C212.198792,54.201191 213.469116,47.693554 210.901947,44.839901 
	C208.678238,42.368053 201.848267,43.942432 197.052841,43.902794 
	C188.107224,43.828846 179.160553,43.881554 169.557266,43.881554 
	C169.557266,46.782368 169.560104,49.062016 169.556854,51.341660 
	C169.498627,92.165260 169.909943,132.996933 169.209274,173.809509 
	C168.769775,199.408569 153.791382,213.386078 128.184036,214.319534 
	C109.013138,215.018341 93.806602,206.428009 87.918907,190.109406 
	C85.443573,183.248627 84.659782,175.469666 84.601273,168.096252 
	C84.290565,128.940063 84.458672,89.780106 84.441551,50.621460 
	C84.440636,48.523369 84.263908,46.425350 84.148773,43.879444 
	C71.368050,43.879444 59.070004,44.050354 46.781540,43.782246 
	C42.744896,43.694180 41.730957,44.964214 41.742550,48.853359 
	C41.867691,90.844398 41.742928,132.836212 41.881882,174.827148 
	C41.920750,186.571762 43.837921,198.078552 49.165882,208.718552 
	C59.633457,229.622360 76.943176,241.897919 99.275398,247.265961 
	C125.058472,253.463531 150.157349,251.329712 174.897583,239.447433 
z"/>
<path fill="#FEFEFF" opacity="1.000000" stroke="none" 
	d="
M174.576172,239.636459 
	C150.157349,251.329712 125.058472,253.463531 99.275398,247.265961 
	C76.943176,241.897919 59.633457,229.622360 49.165882,208.718552 
	C43.837921,198.078552 41.920750,186.571762 41.881882,174.827148 
	C41.742928,132.836212 41.867691,90.844398 41.742550,48.853359 
	C41.730957,44.964214 42.744896,43.694180 46.781540,43.782246 
	C59.070004,44.050354 71.368050,43.879444 84.148773,43.879444 
	C84.263908,46.425350 84.440636,48.523369 84.441551,50.621460 
	C84.458672,89.780106 84.290565,128.940063 84.601273,168.096252 
	C84.659782,175.469666 85.443573,183.248627 87.918907,190.109406 
	C93.806602,206.428009 109.013138,215.018341 128.184036,214.319534 
	C153.791382,213.386078 168.769775,199.408569 169.209274,173.809509 
	C169.909943,132.996933 169.498627,92.165260 169.556854,51.341660 
	C169.560104,49.062016 169.557266,46.782368 169.557266,43.881554 
	C179.160553,43.881554 188.107224,43.828846 197.052841,43.902794 
	C201.848267,43.942432 208.678238,42.368053 210.901947,44.839901 
	C213.469116,47.693554 212.198792,54.201191 212.207260,59.122849 
	C212.272034,96.781693 212.297867,134.440826 212.210068,172.099594 
	C212.181549,184.333313 210.683624,196.368851 205.410965,207.618149 
	C198.833054,221.652237 188.814484,232.428665 174.576172,239.636459 
z"/>
</svg>